<svg width="58" height="60" viewBox="0 0 58 60" fill="none" xmlns="http://www.w3.org/2000/svg">
<path d="M17.66 57.4598L19.66 58.7198C19.98 58.3065 20.2733 57.8598 20.54 57.3798C20.7933 56.8998 20.9933 56.3798 21.14 55.8198C21.3 55.2465 21.38 54.6265 21.38 53.9598C21.38 52.8665 21.1333 52.0198 20.64 51.4198C20.1333 50.8065 19.3867 50.4998 18.4 50.4998C17.8267 50.4998 17.3667 50.6265 17.02 50.8798C16.6733 51.1198 16.3867 51.4465 16.16 51.8598C15.9333 52.2598 15.7333 52.6998 15.56 53.1798C15.3867 53.6332 15.2467 54.0198 15.14 54.3398C15.02 54.6465 14.8933 54.8865 14.76 55.0598C14.6267 55.2198 14.46 55.2998 14.26 55.2998C14.0867 55.2998 13.9467 55.2332 13.84 55.0998C13.7333 54.9532 13.68 54.7398 13.68 54.4598C13.68 54.0465 13.8 53.5932 14.04 53.0998C14.2667 52.6065 14.56 52.1665 14.92 51.7798L12.96 50.6998C12.6933 51.0598 12.46 51.4465 12.26 51.8598C12.06 52.2598 11.9 52.6932 11.78 53.1598C11.66 53.6132 11.6 54.1065 11.6 54.6398C11.6 55.3065 11.7 55.8998 11.9 56.4198C12.1 56.9265 12.3933 57.3332 12.78 57.6398C13.1667 57.9332 13.64 58.0798 14.2 58.0798C14.7867 58.0798 15.2667 57.9532 15.64 57.6998C16.0133 57.4465 16.3133 57.1265 16.54 56.7398C16.7533 56.3398 16.94 55.9198 17.1 55.4798C17.2467 54.9865 17.3867 54.5998 17.52 54.3198C17.6533 54.0265 17.7933 53.8198 17.94 53.6998C18.0733 53.5798 18.24 53.5198 18.44 53.5198C18.6533 53.5198 18.8267 53.5932 18.96 53.7398C19.0933 53.8865 19.16 54.1132 19.16 54.4198C19.16 54.6332 19.12 54.8865 19.04 55.1798C18.9467 55.4732 18.7933 55.8132 18.58 56.1998C18.3533 56.5732 18.0467 56.9932 17.66 57.4598ZM11.8 47.0187H14.3V40.8587H11.8V47.0187ZM8.6 45.3987L21 45.3987V42.4987H8.6V45.3987ZM16.4 37.2116C17.36 37.2116 18.2 36.9849 18.92 36.5316C19.64 36.0782 20.2 35.4516 20.6 34.6516C21 33.8516 21.2 32.9516 21.2 31.9516C21.2 30.9516 21 30.0582 20.6 29.2716C20.2 28.4716 19.64 27.8449 18.92 27.3916C18.2 26.9249 17.36 26.6916 16.4 26.6916C15.4267 26.6916 14.58 26.9249 13.86 27.3916C13.14 27.8449 12.58 28.4716 12.18 29.2716C11.78 30.0582 11.58 30.9516 11.58 31.9516C11.58 32.9516 11.78 33.8516 12.18 34.6516C12.58 35.4516 13.14 36.0782 13.86 36.5316C14.58 36.9849 15.4267 37.2116 16.4 37.2116ZM16.4 34.1116C15.92 34.1116 15.5067 34.0116 15.16 33.8116C14.8133 33.6116 14.5467 33.3516 14.36 33.0316C14.1733 32.7116 14.08 32.3516 14.08 31.9516C14.08 31.5649 14.1733 31.2116 14.36 30.8916C14.5467 30.5582 14.8133 30.2982 15.16 30.1116C15.5067 29.9116 15.92 29.8116 16.4 29.8116C16.88 29.8116 17.2933 29.9116 17.64 30.1116C17.9733 30.2982 18.2333 30.5582 18.42 30.8916C18.6067 31.2116 18.7 31.5649 18.7 31.9516C18.7 32.3516 18.6067 32.7116 18.42 33.0316C18.2333 33.3516 17.9733 33.6116 17.64 33.8116C17.2933 34.0116 16.88 34.1116 16.4 34.1116ZM11.8 18.9947V21.9747H21V18.9947H11.8ZM14.92 16.3347L12.34 15.0347C12.1 15.1947 11.9133 15.428 11.78 15.7347C11.6467 16.0414 11.58 16.3614 11.58 16.6947C11.58 17.2014 11.7467 17.688 12.08 18.1547C12.4133 18.6214 12.8667 19.0014 13.44 19.2947C14.0133 19.5747 14.6667 19.7147 15.4 19.7147L16.46 18.9947C16.02 18.9947 15.6467 18.9347 15.34 18.8147C15.0333 18.6947 14.8 18.5214 14.64 18.2947C14.48 18.068 14.4 17.808 14.4 17.5147C14.4 17.248 14.4467 17.028 14.54 16.8547C14.6333 16.668 14.76 16.4947 14.92 16.3347ZM21.2 6.465C21.2 5.29167 20.9733 4.29834 20.52 3.485C20.0667 2.65834 19.3867 2.005 18.48 1.525L17.82 4.225C18.22 4.45167 18.52 4.75834 18.72 5.145C18.92 5.51834 19.02 5.97167 19.02 6.505C19.02 6.97167 18.92 7.365 18.72 7.685C18.5067 8.005 18.2 8.245 17.8 8.405C17.4 8.565 16.92 8.645 16.36 8.645C15.7467 8.63167 15.24 8.55167 14.84 8.405C14.4267 8.245 14.12 8.01167 13.92 7.705C13.72 7.39834 13.62 7.01834 13.62 6.565C13.62 6.205 13.7 5.89167 13.86 5.625C14.02 5.35834 14.2467 5.15167 14.54 5.005C14.8333 4.85834 15.18 4.785 15.58 4.785C15.6733 4.785 15.7933 4.81167 15.94 4.865C16.0733 4.905 16.1867 4.95834 16.28 5.025L15.36 4.305V9.985H17.04V1.585C16.9467 1.55834 16.8333 1.545 16.7 1.545C16.5533 1.545 16.4067 1.545 16.26 1.545C15.2733 1.545 14.4333 1.73834 13.74 2.125C13.0467 2.51167 12.52 3.07167 12.16 3.805C11.7867 4.53834 11.6 5.43834 11.6 6.505C11.6 7.57167 11.7933 8.49834 12.18 9.285C12.5667 10.0583 13.12 10.6517 13.84 11.065C14.56 11.4783 15.4133 11.685 16.4 11.685C17.3733 11.685 18.22 11.4717 18.94 11.045C19.66 10.6183 20.22 10.0183 20.62 9.245C21.0067 8.45834 21.2 7.53167 21.2 6.465Z" fill="black"/>
<path d="M57.5 60L44.5 30.2521L38.5 35.7983L44.5 60C44.5 60 48.4616 60 51 60C53.5384 60 57.5 60 57.5 60Z" fill="url(#paint0_linear_8_6)"/>
<path d="M22 0V60H35.5V34.2857H27.5L35.5 26.2185V0H22Z" fill="url(#paint1_linear_8_6)"/>
<path d="M35.5 34.2857L46.5 23.6975L57.5 13.1092V5.54622L35.5 26.2185L27.5 34.2857H35.5Z" fill="url(#paint2_angular_8_6)"/>
<defs>
<linearGradient id="paint0_linear_8_6" x1="39.75" y1="0" x2="39.75" y2="60" gradientUnits="userSpaceOnUse">
<stop offset="0.58125" stop-color="#D861A8"/>
<stop offset="1" stop-color="#9561D8" stop-opacity="0"/>
</linearGradient>
<linearGradient id="paint1_linear_8_6" x1="39.75" y1="-5.42402e-07" x2="9.01794" y2="126.437" gradientUnits="userSpaceOnUse">
<stop stop-color="#B141D9"/>
<stop offset="0.607292" stop-color="#B141D9" stop-opacity="0"/>
</linearGradient>
<radialGradient id="paint2_angular_8_6" cx="0" cy="0" r="1" gradientUnits="userSpaceOnUse" gradientTransform="translate(48.5 29.7479) rotate(23.859) scale(31.1631 18.6984)">
<stop offset="0.0962972" stop-color="#4E6EDE" stop-opacity="0"/>
<stop offset="0.23292" stop-color="#B43471" stop-opacity="0.49667"/>
<stop offset="0.9999" stop-color="#D86161"/>
</radialGradient>
</defs>
</svg>
